0
SECTION
2
HEADER
9
$ACADVER
1
AC1021
0
ENDSEC
0
SECTION
2
ENTITIES
0
LINE
5
1
8
0
10
0.0
20
0.0
30
0.0
11
150.0
21
0.0
31
0.0
0
LINE
5
2
8
0
10
150.0
20
0.0
30
0.0
11
150.0
21
150.0
31
0.0
0
LINE
5
3
8
0
10
150.0
20
150.0
30
0.0
11
0.0
21
150.0
31
0.0
0
LINE
5
4
8
0
10
0.0
20
150.0
30
0.0
11
0.0
21
0.0
31
0.0
0
CIRCLE
5
10
8
0
10
75.0
20
75.0
30
0.0
40
3.0
0
TEXT
5
20
8
1
10
65.0
20
70.0
30
0.0
40
8.0
1
底板 150x150
0
LINE
5
11
8
0
10
170.0
20
0.0
30
0.0
11
320.0
21
0.0
31
0.0
0
LINE
5
12
8
0
10
320.0
20
0.0
30
0.0
11
320.0
21
150.0
31
0.0
0
LINE
5
13
8
0
10
320.0
20
150.0
30
0.0
11
170.0
21
150.0
31
0.0
0
LINE
5
14
8
0
10
170.0
20
150.0
30
0.0
11
170.0
21
0.0
31
0.0
0
CIRCLE
5
21
8
0
10
245.0
20
75.0
30
0.0
40
3.0
0
TEXT
5
22
8
1
10
235.0
20
70.0
30
0.0
40
8.0
1
侧板A 150x150
0
LINE
5
15
8
0
10
0.0
20
170.0
30
0.0
11
150.0
21
170.0
31
0.0
0
LINE
5
16
8
0
10
150.0
20
170.0
30
0.0
11
150.0
21
320.0
31
0.0
0
LINE
5
17
8
0
10
150.0
20
320.0
30
0.0
11
0.0
21
320.0
31
0.0
0
LINE
5
18
8
0
10
0.0
20
320.0
30
0.0
11
0.0
21
170.0
31
0.0
0
CIRCLE
5
23
8
0
10
75.0
20
245.0
30
0.0
40
3.0
0
TEXT
5
24
8
1
10
65.0
20
240.0
30
0.0
40
8.0
1
侧板A 150x150
0
LINE
5
19
8
0
10
170.0
20
170.0
30
0.0
11
320.0
21
170.0
31
0.0
0
LINE
5
20
8
0
10
320.0
20
170.0
30
0.0
11
320.0
21
320.0
31
0.0
0
LINE
5
21
8
0
10
320.0
20
320.0
30
0.0
11
170.0
21
320.0
31
0.0
0
LINE
5
22
8
0
10
170.0
20
320.0
30
0.0
11
170.0
21
170.0
31
0.0
0
CIRCLE
5
25
8
0
10
245.0
20
245.0
30
0.0
40
3.0
0
TEXT
5
26
8
1
10
235.0
20
240.0
30
0.0
40
8.0
1
侧板B 150x150
0
ENDSEC
0
EOF
